<svg width="17" height="15" viewBox="0 0 17 15" fill="none" xmlns="http://www.w3.org/2000/svg">
<path d="M8.1274 0.68156C8.2051 0.457384 8.52214 0.457383 8.59983 0.68156L10.2647 5.48537C10.2996 5.58601 10.3944 5.6535 10.501 5.6535H15.8526C16.0987 5.6535 16.1967 5.9716 15.9934 6.11012L11.6921 9.03984C11.5988 9.10341 11.5597 9.22164 11.5966 9.32833L13.246 14.0873C13.3249 14.3148 13.0681 14.5114 12.8691 14.3758L8.50436 11.4029C8.41944 11.345 8.30779 11.345 8.22288 11.4029L3.85818 14.3758C3.65916 14.5114 3.40237 14.3148 3.48122 14.0873L5.13059 9.32833C5.16757 9.22164 5.12844 9.10341 5.03512 9.03984L0.733874 6.11012C0.5305 5.9716 0.628543 5.6535 0.874611 5.6535H6.22628C6.3328 5.6535 6.42761 5.58601 6.46249 5.48537L8.1274 0.68156Z" fill="#FBB040"/>
</svg>
